<?xml version="1.0" encoding="UTF-8" standalone="no"?>
<!DOCTYPE svg PUBLIC "-//W3C//DTD SVG 1.1//EN"
 "http://www.w3.org/Graphics/SVG/1.1/DTD/svg11.dtd">
<!-- Generated by graphviz version 2.42.3 (20191010.1750)
 -->
<!-- Title: %3 Pages: 1 -->
<svg width="230pt" height="223pt"
 viewBox="0.00 0.00 229.79 223.42" xmlns="http://www.w3.org/2000/svg" xmlns:xlink="http://www.w3.org/1999/xlink">
<g id="graph0" class="graph" transform="scale(1 1) rotate(0) translate(4 219.42)">
<title>%3</title>
<polygon fill="white" stroke="transparent" points="-4,4 -4,-219.42 225.79,-219.42 225.79,4 -4,4"/>
<g id="clust1" class="cluster">
<title>cluster15</title>
<path fill="none" stroke="black" d="M68.14,-8C68.14,-8 170.14,-8 170.14,-8 176.14,-8 182.14,-14 182.14,-20 182.14,-20 182.14,-104.71 182.14,-104.71 182.14,-110.71 176.14,-116.71 170.14,-116.71 170.14,-116.71 68.14,-116.71 68.14,-116.71 62.14,-116.71 56.14,-110.71 56.14,-104.71 56.14,-104.71 56.14,-20 56.14,-20 56.14,-14 62.14,-8 68.14,-8"/>
<text text-anchor="middle" x="167.14" y="-14.8" font-family="Times,serif" font-size="14.00">15</text>
</g>
<!-- epsilon -->
<g id="node1" class="node">
<title>epsilon</title>
<ellipse fill="none" stroke="black" cx="59.14" cy="-180.07" rx="59.29" ry="35.21"/>
<text text-anchor="middle" x="59.14" y="-189.87" font-family="Times,serif" font-size="14.00">epsilon</text>
<text text-anchor="middle" x="59.14" y="-175.87" font-family="Times,serif" font-size="14.00">~</text>
<text text-anchor="middle" x="59.14" y="-161.87" font-family="Times,serif" font-size="14.00">HalfNormal</text>
</g>
<!-- y_pred -->
<g id="node3" class="node">
<title>y_pred</title>
<ellipse fill="lightgrey" stroke="black" cx="119.14" cy="-73.36" rx="55.11" ry="35.21"/>
<text text-anchor="middle" x="119.14" y="-83.16" font-family="Times,serif" font-size="14.00">y_pred</text>
<text text-anchor="middle" x="119.14" y="-69.16" font-family="Times,serif" font-size="14.00">~</text>
<text text-anchor="middle" x="119.14" y="-55.16" font-family="Times,serif" font-size="14.00">MvNormal</text>
</g>
<!-- epsilon&#45;&gt;y_pred -->
<g id="edge1" class="edge">
<title>epsilon&#45;&gt;y_pred</title>
<path fill="none" stroke="black" d="M77.8,-146.51C83.39,-136.76 89.59,-125.93 95.46,-115.7"/>
<polygon fill="black" stroke="black" points="98.56,-117.31 100.5,-106.89 92.49,-113.83 98.56,-117.31"/>
</g>
<!-- l -->
<g id="node2" class="node">
<title>l</title>
<ellipse fill="none" stroke="black" cx="179.14" cy="-180.07" rx="42.8" ry="35.21"/>
<text text-anchor="middle" x="179.14" y="-189.87" font-family="Times,serif" font-size="14.00">l</text>
<text text-anchor="middle" x="179.14" y="-175.87" font-family="Times,serif" font-size="14.00">~</text>
<text text-anchor="middle" x="179.14" y="-161.87" font-family="Times,serif" font-size="14.00">Gamma</text>
</g>
<!-- l&#45;&gt;y_pred -->
<g id="edge2" class="edge">
<title>l&#45;&gt;y_pred</title>
<path fill="none" stroke="black" d="M161.3,-147.93C155.53,-137.85 149.03,-126.51 142.9,-115.81"/>
<polygon fill="black" stroke="black" points="145.86,-113.94 137.85,-107.01 139.79,-117.42 145.86,-113.94"/>
</g>
</g>
</svg>
